<svg width="1440" height="88" viewBox="0 0 1440 88" fill="none" xmlns="http://www.w3.org/2000/svg">
<path d="M-130.901 65H-140.931V51.4219H-176.188V65H-186.217V37.3423C-186.217 33.3049 -185.522 29.5889 -184.134 26.1943C-182.745 22.7998 -180.816 19.881 -178.348 17.438C-175.879 14.995 -172.96 13.092 -169.591 11.729C-166.222 10.366 -162.545 9.68457 -158.559 9.68457H-135.955C-135.26 9.68457 -134.604 9.81315 -133.987 10.0703C-133.37 10.3275 -132.83 10.6875 -132.367 11.1504C-131.904 11.6133 -131.544 12.1533 -131.287 12.7705C-131.03 13.3877 -130.901 14.0435 -130.901 14.7378V65ZM-176.188 41.3926H-140.931V19.7139H-158.559C-158.868 19.7139 -159.523 19.7653 -160.526 19.8682C-161.504 19.9453 -162.648 20.1639 -163.959 20.5239C-165.245 20.884 -166.608 21.4368 -168.048 22.1826C-169.488 22.9284 -170.813 23.957 -172.021 25.2686C-173.23 26.5801 -174.233 28.2259 -175.03 30.2061C-175.802 32.1605 -176.188 34.5392 -176.188 37.3423V41.3926ZM-63.9365 28.2773C-63.9365 30.5661 -64.2194 32.6105 -64.7852 34.4106C-65.3509 36.2108 -66.1224 37.8052 -67.0996 39.1938C-68.0511 40.5568 -69.1569 41.7269 -70.417 42.7041C-71.6771 43.6813 -73.0015 44.4914 -74.3901 45.1343C-75.7531 45.7515 -77.1418 46.2015 -78.5562 46.4844C-79.9448 46.7673 -81.2563 46.9087 -82.4907 46.9087L-61.5449 65H-77.0518L-97.959 46.9087H-105.172V36.8794H-82.4907C-81.2306 36.7765 -80.0863 36.5194 -79.0576 36.1079C-78.0033 35.6707 -77.1032 35.0921 -76.3574 34.3721C-75.5859 33.652 -74.9945 32.7905 -74.583 31.7876C-74.1715 30.759 -73.9658 29.5889 -73.9658 28.2773V21.9512C-73.9658 21.3854 -74.043 20.9611 -74.1973 20.6782C-74.3258 20.3696 -74.5059 20.151 -74.7373 20.0225C-74.943 19.8682 -75.1745 19.7782 -75.4316 19.7524C-75.6631 19.7267 -75.8817 19.7139 -76.0874 19.7139H-109.184V65H-119.213V14.7378C-119.213 14.0435 -119.085 13.3877 -118.828 12.7705C-118.57 12.1533 -118.223 11.6133 -117.786 11.1504C-117.323 10.6875 -116.783 10.3275 -116.166 10.0703C-115.549 9.81315 -114.88 9.68457 -114.16 9.68457H-76.0874C-73.8501 9.68457 -71.96 10.096 -70.417 10.9189C-68.874 11.7161 -67.6268 12.7319 -66.6753 13.9663C-65.6981 15.175 -65.0037 16.4865 -64.5923 17.9009C-64.1551 19.3153 -63.9365 20.6396 -63.9365 21.874V28.2773ZM-4.33936 19.7139H-26.4424V65H-36.4717V19.7139H-58.6133V9.68457H-4.33936V19.7139ZM13.1733 65H3.14404V9.68457H13.1733V65ZM78.0552 48.7217C78.0552 50.7018 77.798 52.4891 77.2837 54.0835C76.7951 55.6522 76.1393 57.0409 75.3164 58.2495C74.4935 59.4582 73.5291 60.4868 72.4233 61.3354C71.3175 62.1841 70.1732 62.8784 68.9902 63.4185C67.8073 63.9585 66.5986 64.3571 65.3643 64.6143C64.1556 64.8714 63.0112 65 61.9312 65H23.2412V54.9707H61.9312C63.8599 54.9707 65.3514 54.4049 66.4058 53.2734C67.4858 52.1419 68.0259 50.6247 68.0259 48.7217C68.0259 47.7959 67.8844 46.9473 67.6016 46.1758C67.3187 45.4043 66.9072 44.7357 66.3672 44.1699C65.8529 43.6042 65.21 43.167 64.4385 42.8584C63.6927 42.5498 62.8569 42.3955 61.9312 42.3955H38.8638C37.2437 42.3955 35.495 42.1126 33.6177 41.5469C31.7404 40.9554 29.9917 40.0168 28.3716 38.731C26.7772 37.4451 25.4399 35.7607 24.3599 33.6777C23.3055 31.5947 22.7783 29.0488 22.7783 26.04C22.7783 23.0312 23.3055 20.4982 24.3599 18.4409C25.4399 16.3579 26.7772 14.6735 28.3716 13.3877C29.9917 12.0762 31.7404 11.1375 33.6177 10.5718C35.495 9.98031 37.2437 9.68457 38.8638 9.68457H73.002V19.7139H38.8638C36.9608 19.7139 35.4692 20.2925 34.3892 21.4497C33.3348 22.6069 32.8076 24.137 32.8076 26.04C32.8076 27.9688 33.3348 29.4989 34.3892 30.6304C35.4692 31.7362 36.9608 32.2891 38.8638 32.2891H61.9312H62.0083C63.0884 32.3148 64.2327 32.4691 65.4414 32.752C66.6501 33.0091 67.8459 33.4206 69.0288 33.9863C70.2375 34.5521 71.3818 35.2721 72.4619 36.1465C73.542 36.9951 74.4935 38.0238 75.3164 39.2324C76.165 40.4411 76.8337 41.8298 77.3223 43.3984C77.8109 44.9671 78.0552 46.7415 78.0552 48.7217ZM135.762 19.7139H113.659V65H103.63V19.7139H81.4883V9.68457H135.762V19.7139ZM196.324 48.7217C196.324 50.7018 196.067 52.4891 195.552 54.0835C195.064 55.6522 194.408 57.0409 193.585 58.2495C192.762 59.4582 191.798 60.4868 190.692 61.3354C189.586 62.1841 188.442 62.8784 187.259 63.4185C186.076 63.9585 184.867 64.3571 183.633 64.6143C182.424 64.8714 181.28 65 180.2 65H141.51V54.9707H180.2C182.128 54.9707 183.62 54.4049 184.674 53.2734C185.754 52.1419 186.294 50.6247 186.294 48.7217C186.294 47.7959 186.153 46.9473 185.87 46.1758C185.587 45.4043 185.176 44.7357 184.636 44.1699C184.121 43.6042 183.479 43.167 182.707 42.8584C181.961 42.5498 181.125 42.3955 180.2 42.3955H157.132C155.512 42.3955 153.764 42.1126 151.886 41.5469C150.009 40.9554 148.26 40.0168 146.64 38.731C145.046 37.4451 143.708 35.7607 142.628 33.6777C141.574 31.5947 141.047 29.0488 141.047 26.04C141.047 23.0312 141.574 20.4982 142.628 18.4409C143.708 16.3579 145.046 14.6735 146.64 13.3877C148.26 12.0762 150.009 11.1375 151.886 10.5718C153.764 9.98031 155.512 9.68457 157.132 9.68457H191.271V19.7139H157.132C155.229 19.7139 153.738 20.2925 152.658 21.4497C151.603 22.6069 151.076 24.137 151.076 26.04C151.076 27.9688 151.603 29.4989 152.658 30.6304C153.738 31.7362 155.229 32.2891 157.132 32.2891H180.2H180.277C181.357 32.3148 182.501 32.4691 183.71 32.752C184.919 33.0091 186.114 33.4206 187.297 33.9863C188.506 34.5521 189.65 35.2721 190.73 36.1465C191.811 36.9951 192.762 38.0238 193.585 39.2324C194.434 40.4411 195.102 41.8298 195.591 43.3984C196.079 44.9671 196.324 46.7415 196.324 48.7217Z" fill="white"/>
<path d="M263.099 65H253.069V51.4219H217.812V65H207.783V37.3423C207.783 33.3049 208.478 29.5889 209.866 26.1943C211.255 22.7998 213.184 19.881 215.652 17.438C218.121 14.995 221.04 13.092 224.409 11.729C227.778 10.366 231.455 9.68457 235.441 9.68457H258.045C258.74 9.68457 259.396 9.81315 260.013 10.0703C260.63 10.3275 261.17 10.6875 261.633 11.1504C262.096 11.6133 262.456 12.1533 262.713 12.7705C262.97 13.3877 263.099 14.0435 263.099 14.7378V65ZM217.812 41.3926H253.069V19.7139H235.441C235.132 19.7139 234.477 19.7653 233.474 19.8682C232.496 19.9453 231.352 20.1639 230.041 20.5239C228.755 20.884 227.392 21.4368 225.952 22.1826C224.512 22.9284 223.187 23.957 221.979 25.2686C220.77 26.5801 219.767 28.2259 218.97 30.2061C218.198 32.1605 217.812 34.5392 217.812 37.3423V41.3926ZM330.063 28.2773C330.063 30.5661 329.781 32.6105 329.215 34.4106C328.649 36.2108 327.878 37.8052 326.9 39.1938C325.949 40.5568 324.843 41.7269 323.583 42.7041C322.323 43.6813 320.999 44.4914 319.61 45.1343C318.247 45.7515 316.858 46.2015 315.444 46.4844C314.055 46.7673 312.744 46.9087 311.509 46.9087L332.455 65H316.948L296.041 46.9087H288.828V36.8794H311.509C312.769 36.7765 313.914 36.5194 314.942 36.1079C315.997 35.6707 316.897 35.0921 317.643 34.3721C318.414 33.652 319.006 32.7905 319.417 31.7876C319.828 30.759 320.034 29.5889 320.034 28.2773V21.9512C320.034 21.3854 319.957 20.9611 319.803 20.6782C319.674 20.3696 319.494 20.151 319.263 20.0225C319.057 19.8682 318.826 19.7782 318.568 19.7524C318.337 19.7267 318.118 19.7139 317.913 19.7139H284.816V65H274.787V14.7378C274.787 14.0435 274.915 13.3877 275.172 12.7705C275.43 12.1533 275.777 11.6133 276.214 11.1504C276.677 10.6875 277.217 10.3275 277.834 10.0703C278.451 9.81315 279.12 9.68457 279.84 9.68457H317.913C320.15 9.68457 322.04 10.096 323.583 10.9189C325.126 11.7161 326.373 12.7319 327.325 13.9663C328.302 15.175 328.996 16.4865 329.408 17.9009C329.845 19.3153 330.063 20.6396 330.063 21.874V28.2773ZM389.661 19.7139H367.558V65H357.528V19.7139H335.387V9.68457H389.661V19.7139ZM407.173 65H397.144V9.68457H407.173V65ZM472.055 48.7217C472.055 50.7018 471.798 52.4891 471.284 54.0835C470.795 55.6522 470.139 57.0409 469.316 58.2495C468.493 59.4582 467.529 60.4868 466.423 61.3354C465.318 62.1841 464.173 62.8784 462.99 63.4185C461.807 63.9585 460.599 64.3571 459.364 64.6143C458.156 64.8714 457.011 65 455.931 65H417.241V54.9707H455.931C457.86 54.9707 459.351 54.4049 460.406 53.2734C461.486 52.1419 462.026 50.6247 462.026 48.7217C462.026 47.7959 461.884 46.9473 461.602 46.1758C461.319 45.4043 460.907 44.7357 460.367 44.1699C459.853 43.6042 459.21 43.167 458.438 42.8584C457.693 42.5498 456.857 42.3955 455.931 42.3955H432.864C431.244 42.3955 429.495 42.1126 427.618 41.5469C425.74 40.9554 423.992 40.0168 422.372 38.731C420.777 37.4451 419.44 35.7607 418.36 33.6777C417.306 31.5947 416.778 29.0488 416.778 26.04C416.778 23.0312 417.306 20.4982 418.36 18.4409C419.44 16.3579 420.777 14.6735 422.372 13.3877C423.992 12.0762 425.74 11.1375 427.618 10.5718C429.495 9.98031 431.244 9.68457 432.864 9.68457H467.002V19.7139H432.864C430.961 19.7139 429.469 20.2925 428.389 21.4497C427.335 22.6069 426.808 24.137 426.808 26.04C426.808 27.9688 427.335 29.4989 428.389 30.6304C429.469 31.7362 430.961 32.2891 432.864 32.2891H455.931H456.008C457.088 32.3148 458.233 32.4691 459.441 32.752C460.65 33.0091 461.846 33.4206 463.029 33.9863C464.237 34.5521 465.382 35.2721 466.462 36.1465C467.542 36.9951 468.493 38.0238 469.316 39.2324C470.165 40.4411 470.834 41.8298 471.322 43.3984C471.811 44.9671 472.055 46.7415 472.055 48.7217ZM529.762 19.7139H507.659V65H497.63V19.7139H475.488V9.68457H529.762V19.7139ZM590.324 48.7217C590.324 50.7018 590.067 52.4891 589.552 54.0835C589.064 55.6522 588.408 57.0409 587.585 58.2495C586.762 59.4582 585.798 60.4868 584.692 61.3354C583.586 62.1841 582.442 62.8784 581.259 63.4185C580.076 63.9585 578.867 64.3571 577.633 64.6143C576.424 64.8714 575.28 65 574.2 65H535.51V54.9707H574.2C576.128 54.9707 577.62 54.4049 578.674 53.2734C579.754 52.1419 580.294 50.6247 580.294 48.7217C580.294 47.7959 580.153 46.9473 579.87 46.1758C579.587 45.4043 579.176 44.7357 578.636 44.1699C578.121 43.6042 577.479 43.167 576.707 42.8584C575.961 42.5498 575.125 42.3955 574.2 42.3955H551.132C549.512 42.3955 547.764 42.1126 545.886 41.5469C544.009 40.9554 542.26 40.0168 540.64 38.731C539.046 37.4451 537.708 35.7607 536.628 33.6777C535.574 31.5947 535.047 29.0488 535.047 26.04C535.047 23.0312 535.574 20.4982 536.628 18.4409C537.708 16.3579 539.046 14.6735 540.64 13.3877C542.26 12.0762 544.009 11.1375 545.886 10.5718C547.764 9.98031 549.512 9.68457 551.132 9.68457H585.271V19.7139H551.132C549.229 19.7139 547.738 20.2925 546.658 21.4497C545.603 22.6069 545.076 24.137 545.076 26.04C545.076 27.9688 545.603 29.4989 546.658 30.6304C547.738 31.7362 549.229 32.2891 551.132 32.2891H574.2H574.277C575.357 32.3148 576.501 32.4691 577.71 32.752C578.919 33.0091 580.114 33.4206 581.297 33.9863C582.506 34.5521 583.65 35.2721 584.73 36.1465C585.811 36.9951 586.762 38.0238 587.585 39.2324C588.434 40.4411 589.102 41.8298 589.591 43.3984C590.079 44.9671 590.324 46.7415 590.324 48.7217Z" fill="black"/>
<path d="M657.099 65H647.069V51.4219H611.812V65H601.783V37.3423C601.783 33.3049 602.478 29.5889 603.866 26.1943C605.255 22.7998 607.184 19.881 609.652 17.438C612.121 14.995 615.04 13.092 618.409 11.729C621.778 10.366 625.455 9.68457 629.441 9.68457H652.045C652.74 9.68457 653.396 9.81315 654.013 10.0703C654.63 10.3275 655.17 10.6875 655.633 11.1504C656.096 11.6133 656.456 12.1533 656.713 12.7705C656.97 13.3877 657.099 14.0435 657.099 14.7378V65ZM611.812 41.3926H647.069V19.7139H629.441C629.132 19.7139 628.477 19.7653 627.474 19.8682C626.496 19.9453 625.352 20.1639 624.041 20.5239C622.755 20.884 621.392 21.4368 619.952 22.1826C618.512 22.9284 617.187 23.957 615.979 25.2686C614.77 26.5801 613.767 28.2259 612.97 30.2061C612.198 32.1605 611.812 34.5392 611.812 37.3423V41.3926ZM724.063 28.2773C724.063 30.5661 723.781 32.6105 723.215 34.4106C722.649 36.2108 721.878 37.8052 720.9 39.1938C719.949 40.5568 718.843 41.7269 717.583 42.7041C716.323 43.6813 714.999 44.4914 713.61 45.1343C712.247 45.7515 710.858 46.2015 709.444 46.4844C708.055 46.7673 706.744 46.9087 705.509 46.9087L726.455 65H710.948L690.041 46.9087H682.828V36.8794H705.509C706.769 36.7765 707.914 36.5194 708.942 36.1079C709.997 35.6707 710.897 35.0921 711.643 34.3721C712.414 33.652 713.006 32.7905 713.417 31.7876C713.828 30.759 714.034 29.5889 714.034 28.2773V21.9512C714.034 21.3854 713.957 20.9611 713.803 20.6782C713.674 20.3696 713.494 20.151 713.263 20.0225C713.057 19.8682 712.826 19.7782 712.568 19.7524C712.337 19.7267 712.118 19.7139 711.913 19.7139H678.816V65H668.787V14.7378C668.787 14.0435 668.915 13.3877 669.172 12.7705C669.43 12.1533 669.777 11.6133 670.214 11.1504C670.677 10.6875 671.217 10.3275 671.834 10.0703C672.451 9.81315 673.12 9.68457 673.84 9.68457H711.913C714.15 9.68457 716.04 10.096 717.583 10.9189C719.126 11.7161 720.373 12.7319 721.325 13.9663C722.302 15.175 722.996 16.4865 723.408 17.9009C723.845 19.3153 724.063 20.6396 724.063 21.874V28.2773ZM783.661 19.7139H761.558V65H751.528V19.7139H729.387V9.68457H783.661V19.7139ZM801.173 65H791.144V9.68457H801.173V65ZM866.055 48.7217C866.055 50.7018 865.798 52.4891 865.284 54.0835C864.795 55.6522 864.139 57.0409 863.316 58.2495C862.493 59.4582 861.529 60.4868 860.423 61.3354C859.318 62.1841 858.173 62.8784 856.99 63.4185C855.807 63.9585 854.599 64.3571 853.364 64.6143C852.156 64.8714 851.011 65 849.931 65H811.241V54.9707H849.931C851.86 54.9707 853.351 54.4049 854.406 53.2734C855.486 52.1419 856.026 50.6247 856.026 48.7217C856.026 47.7959 855.884 46.9473 855.602 46.1758C855.319 45.4043 854.907 44.7357 854.367 44.1699C853.853 43.6042 853.21 43.167 852.438 42.8584C851.693 42.5498 850.857 42.3955 849.931 42.3955H826.864C825.244 42.3955 823.495 42.1126 821.618 41.5469C819.74 40.9554 817.992 40.0168 816.372 38.731C814.777 37.4451 813.44 35.7607 812.36 33.6777C811.306 31.5947 810.778 29.0488 810.778 26.04C810.778 23.0312 811.306 20.4982 812.36 18.4409C813.44 16.3579 814.777 14.6735 816.372 13.3877C817.992 12.0762 819.74 11.1375 821.618 10.5718C823.495 9.98031 825.244 9.68457 826.864 9.68457H861.002V19.7139H826.864C824.961 19.7139 823.469 20.2925 822.389 21.4497C821.335 22.6069 820.808 24.137 820.808 26.04C820.808 27.9688 821.335 29.4989 822.389 30.6304C823.469 31.7362 824.961 32.2891 826.864 32.2891H849.931H850.008C851.088 32.3148 852.233 32.4691 853.441 32.752C854.65 33.0091 855.846 33.4206 857.029 33.9863C858.237 34.5521 859.382 35.2721 860.462 36.1465C861.542 36.9951 862.493 38.0238 863.316 39.2324C864.165 40.4411 864.834 41.8298 865.322 43.3984C865.811 44.9671 866.055 46.7415 866.055 48.7217ZM923.762 19.7139H901.659V65H891.63V19.7139H869.488V9.68457H923.762V19.7139ZM984.324 48.7217C984.324 50.7018 984.067 52.4891 983.552 54.0835C983.064 55.6522 982.408 57.0409 981.585 58.2495C980.762 59.4582 979.798 60.4868 978.692 61.3354C977.586 62.1841 976.442 62.8784 975.259 63.4185C974.076 63.9585 972.867 64.3571 971.633 64.6143C970.424 64.8714 969.28 65 968.2 65H929.51V54.9707H968.2C970.128 54.9707 971.62 54.4049 972.674 53.2734C973.754 52.1419 974.294 50.6247 974.294 48.7217C974.294 47.7959 974.153 46.9473 973.87 46.1758C973.587 45.4043 973.176 44.7357 972.636 44.1699C972.121 43.6042 971.479 43.167 970.707 42.8584C969.961 42.5498 969.125 42.3955 968.2 42.3955H945.132C943.512 42.3955 941.764 42.1126 939.886 41.5469C938.009 40.9554 936.26 40.0168 934.64 38.731C933.046 37.4451 931.708 35.7607 930.628 33.6777C929.574 31.5947 929.047 29.0488 929.047 26.04C929.047 23.0312 929.574 20.4982 930.628 18.4409C931.708 16.3579 933.046 14.6735 934.64 13.3877C936.26 12.0762 938.009 11.1375 939.886 10.5718C941.764 9.98031 943.512 9.68457 945.132 9.68457H979.271V19.7139H945.132C943.229 19.7139 941.738 20.2925 940.658 21.4497C939.603 22.6069 939.076 24.137 939.076 26.04C939.076 27.9688 939.603 29.4989 940.658 30.6304C941.738 31.7362 943.229 32.2891 945.132 32.2891H968.2H968.277C969.357 32.3148 970.501 32.4691 971.71 32.752C972.919 33.0091 974.114 33.4206 975.297 33.9863C976.506 34.5521 977.65 35.2721 978.73 36.1465C979.811 36.9951 980.762 38.0238 981.585 39.2324C982.434 40.4411 983.102 41.8298 983.591 43.3984C984.079 44.9671 984.324 46.7415 984.324 48.7217Z" fill="white"/>
<path d="M1051.1 65H1041.07V51.4219H1005.81V65H995.783V37.3423C995.783 33.3049 996.478 29.5889 997.866 26.1943C999.255 22.7998 1001.18 19.881 1003.65 17.438C1006.12 14.995 1009.04 13.092 1012.41 11.729C1015.78 10.366 1019.45 9.68457 1023.44 9.68457H1046.05C1046.74 9.68457 1047.4 9.81315 1048.01 10.0703C1048.63 10.3275 1049.17 10.6875 1049.63 11.1504C1050.1 11.6133 1050.46 12.1533 1050.71 12.7705C1050.97 13.3877 1051.1 14.0435 1051.1 14.7378V65ZM1005.81 41.3926H1041.07V19.7139H1023.44C1023.13 19.7139 1022.48 19.7653 1021.47 19.8682C1020.5 19.9453 1019.35 20.1639 1018.04 20.5239C1016.75 20.884 1015.39 21.4368 1013.95 22.1826C1012.51 22.9284 1011.19 23.957 1009.98 25.2686C1008.77 26.5801 1007.77 28.2259 1006.97 30.2061C1006.2 32.1605 1005.81 34.5392 1005.81 37.3423V41.3926ZM1118.06 28.2773C1118.06 30.5661 1117.78 32.6105 1117.21 34.4106C1116.65 36.2108 1115.88 37.8052 1114.9 39.1938C1113.95 40.5568 1112.84 41.7269 1111.58 42.7041C1110.32 43.6813 1109 44.4914 1107.61 45.1343C1106.25 45.7515 1104.86 46.2015 1103.44 46.4844C1102.06 46.7673 1100.74 46.9087 1099.51 46.9087L1120.46 65H1104.95L1084.04 46.9087H1076.83V36.8794H1099.51C1100.77 36.7765 1101.91 36.5194 1102.94 36.1079C1104 35.6707 1104.9 35.0921 1105.64 34.3721C1106.41 33.652 1107.01 32.7905 1107.42 31.7876C1107.83 30.759 1108.03 29.5889 1108.03 28.2773V21.9512C1108.03 21.3854 1107.96 20.9611 1107.8 20.6782C1107.67 20.3696 1107.49 20.151 1107.26 20.0225C1107.06 19.8682 1106.83 19.7782 1106.57 19.7524C1106.34 19.7267 1106.12 19.7139 1105.91 19.7139H1072.82V65H1062.79V14.7378C1062.79 14.0435 1062.92 13.3877 1063.17 12.7705C1063.43 12.1533 1063.78 11.6133 1064.21 11.1504C1064.68 10.6875 1065.22 10.3275 1065.83 10.0703C1066.45 9.81315 1067.12 9.68457 1067.84 9.68457H1105.91C1108.15 9.68457 1110.04 10.096 1111.58 10.9189C1113.13 11.7161 1114.37 12.7319 1115.32 13.9663C1116.3 15.175 1117 16.4865 1117.41 17.9009C1117.84 19.3153 1118.06 20.6396 1118.06 21.874V28.2773ZM1177.66 19.7139H1155.56V65H1145.53V19.7139H1123.39V9.68457H1177.66V19.7139ZM1195.17 65H1185.14V9.68457H1195.17V65ZM1260.06 48.7217C1260.06 50.7018 1259.8 52.4891 1259.28 54.0835C1258.8 55.6522 1258.14 57.0409 1257.32 58.2495C1256.49 59.4582 1255.53 60.4868 1254.42 61.3354C1253.32 62.1841 1252.17 62.8784 1250.99 63.4185C1249.81 63.9585 1248.6 64.3571 1247.36 64.6143C1246.16 64.8714 1245.01 65 1243.93 65H1205.24V54.9707H1243.93C1245.86 54.9707 1247.35 54.4049 1248.41 53.2734C1249.49 52.1419 1250.03 50.6247 1250.03 48.7217C1250.03 47.7959 1249.88 46.9473 1249.6 46.1758C1249.32 45.4043 1248.91 44.7357 1248.37 44.1699C1247.85 43.6042 1247.21 43.167 1246.44 42.8584C1245.69 42.5498 1244.86 42.3955 1243.93 42.3955H1220.86C1219.24 42.3955 1217.49 42.1126 1215.62 41.5469C1213.74 40.9554 1211.99 40.0168 1210.37 38.731C1208.78 37.4451 1207.44 35.7607 1206.36 33.6777C1205.31 31.5947 1204.78 29.0488 1204.78 26.04C1204.78 23.0312 1205.31 20.4982 1206.36 18.4409C1207.44 16.3579 1208.78 14.6735 1210.37 13.3877C1211.99 12.0762 1213.74 11.1375 1215.62 10.5718C1217.49 9.98031 1219.24 9.68457 1220.86 9.68457H1255V19.7139H1220.86C1218.96 19.7139 1217.47 20.2925 1216.39 21.4497C1215.33 22.6069 1214.81 24.137 1214.81 26.04C1214.81 27.9688 1215.33 29.4989 1216.39 30.6304C1217.47 31.7362 1218.96 32.2891 1220.86 32.2891H1243.93H1244.01C1245.09 32.3148 1246.23 32.4691 1247.44 32.752C1248.65 33.0091 1249.85 33.4206 1251.03 33.9863C1252.24 34.5521 1253.38 35.2721 1254.46 36.1465C1255.54 36.9951 1256.49 38.0238 1257.32 39.2324C1258.17 40.4411 1258.83 41.8298 1259.32 43.3984C1259.81 44.9671 1260.06 46.7415 1260.06 48.7217ZM1317.76 19.7139H1295.66V65H1285.63V19.7139H1263.49V9.68457H1317.76V19.7139ZM1378.32 48.7217C1378.32 50.7018 1378.07 52.4891 1377.55 54.0835C1377.06 55.6522 1376.41 57.0409 1375.58 58.2495C1374.76 59.4582 1373.8 60.4868 1372.69 61.3354C1371.59 62.1841 1370.44 62.8784 1369.26 63.4185C1368.08 63.9585 1366.87 64.3571 1365.63 64.6143C1364.42 64.8714 1363.28 65 1362.2 65H1323.51V54.9707H1362.2C1364.13 54.9707 1365.62 54.4049 1366.67 53.2734C1367.75 52.1419 1368.29 50.6247 1368.29 48.7217C1368.29 47.7959 1368.15 46.9473 1367.87 46.1758C1367.59 45.4043 1367.18 44.7357 1366.64 44.1699C1366.12 43.6042 1365.48 43.167 1364.71 42.8584C1363.96 42.5498 1363.13 42.3955 1362.2 42.3955H1339.13C1337.51 42.3955 1335.76 42.1126 1333.89 41.5469C1332.01 40.9554 1330.26 40.0168 1328.64 38.731C1327.05 37.4451 1325.71 35.7607 1324.63 33.6777C1323.57 31.5947 1323.05 29.0488 1323.05 26.04C1323.05 23.0312 1323.57 20.4982 1324.63 18.4409C1325.71 16.3579 1327.05 14.6735 1328.64 13.3877C1330.26 12.0762 1332.01 11.1375 1333.89 10.5718C1335.76 9.98031 1337.51 9.68457 1339.13 9.68457H1373.27V19.7139H1339.13C1337.23 19.7139 1335.74 20.2925 1334.66 21.4497C1333.6 22.6069 1333.08 24.137 1333.08 26.04C1333.08 27.9688 1333.6 29.4989 1334.66 30.6304C1335.74 31.7362 1337.23 32.2891 1339.13 32.2891H1362.2H1362.28C1363.36 32.3148 1364.5 32.4691 1365.71 32.752C1366.92 33.0091 1368.11 33.4206 1369.3 33.9863C1370.51 34.5521 1371.65 35.2721 1372.73 36.1465C1373.81 36.9951 1374.76 38.0238 1375.58 39.2324C1376.43 40.4411 1377.1 41.8298 1377.59 43.3984C1378.08 44.9671 1378.32 46.7415 1378.32 48.7217Z" fill="black"/>
<path d="M1445.1 65H1435.07V51.4219H1399.81V65H1389.78V37.3423C1389.78 33.3049 1390.48 29.5889 1391.87 26.1943C1393.25 22.7998 1395.18 19.881 1397.65 17.438C1400.12 14.995 1403.04 13.092 1406.41 11.729C1409.78 10.366 1413.45 9.68457 1417.44 9.68457H1440.05C1440.74 9.68457 1441.4 9.81315 1442.01 10.0703C1442.63 10.3275 1443.17 10.6875 1443.63 11.1504C1444.1 11.6133 1444.46 12.1533 1444.71 12.7705C1444.97 13.3877 1445.1 14.0435 1445.1 14.7378V65ZM1399.81 41.3926H1435.07V19.7139H1417.44C1417.13 19.7139 1416.48 19.7653 1415.47 19.8682C1414.5 19.9453 1413.35 20.1639 1412.04 20.5239C1410.75 20.884 1409.39 21.4368 1407.95 22.1826C1406.51 22.9284 1405.19 23.957 1403.98 25.2686C1402.77 26.5801 1401.77 28.2259 1400.97 30.2061C1400.2 32.1605 1399.81 34.5392 1399.81 37.3423V41.3926ZM1512.06 28.2773C1512.06 30.5661 1511.78 32.6105 1511.21 34.4106C1510.65 36.2108 1509.88 37.8052 1508.9 39.1938C1507.95 40.5568 1506.84 41.7269 1505.58 42.7041C1504.32 43.6813 1503 44.4914 1501.61 45.1343C1500.25 45.7515 1498.86 46.2015 1497.44 46.4844C1496.06 46.7673 1494.74 46.9087 1493.51 46.9087L1514.46 65H1498.95L1478.04 46.9087H1470.83V36.8794H1493.51C1494.77 36.7765 1495.91 36.5194 1496.94 36.1079C1498 35.6707 1498.9 35.0921 1499.64 34.3721C1500.41 33.652 1501.01 32.7905 1501.42 31.7876C1501.83 30.759 1502.03 29.5889 1502.03 28.2773V21.9512C1502.03 21.3854 1501.96 20.9611 1501.8 20.6782C1501.67 20.3696 1501.49 20.151 1501.26 20.0225C1501.06 19.8682 1500.83 19.7782 1500.57 19.7524C1500.34 19.7267 1500.12 19.7139 1499.91 19.7139H1466.82V65H1456.79V14.7378C1456.79 14.0435 1456.92 13.3877 1457.17 12.7705C1457.43 12.1533 1457.78 11.6133 1458.21 11.1504C1458.68 10.6875 1459.22 10.3275 1459.83 10.0703C1460.45 9.81315 1461.12 9.68457 1461.84 9.68457H1499.91C1502.15 9.68457 1504.04 10.096 1505.58 10.9189C1507.13 11.7161 1508.37 12.7319 1509.32 13.9663C1510.3 15.175 1511 16.4865 1511.41 17.9009C1511.84 19.3153 1512.06 20.6396 1512.06 21.874V28.2773ZM1571.66 19.7139H1549.56V65H1539.53V19.7139H1517.39V9.68457H1571.66V19.7139ZM1589.17 65H1579.14V9.68457H1589.17V65ZM1654.06 48.7217C1654.06 50.7018 1653.8 52.4891 1653.28 54.0835C1652.8 55.6522 1652.14 57.0409 1651.32 58.2495C1650.49 59.4582 1649.53 60.4868 1648.42 61.3354C1647.32 62.1841 1646.17 62.8784 1644.99 63.4185C1643.81 63.9585 1642.6 64.3571 1641.36 64.6143C1640.16 64.8714 1639.01 65 1637.93 65H1599.24V54.9707H1637.93C1639.86 54.9707 1641.35 54.4049 1642.41 53.2734C1643.49 52.1419 1644.03 50.6247 1644.03 48.7217C1644.03 47.7959 1643.88 46.9473 1643.6 46.1758C1643.32 45.4043 1642.91 44.7357 1642.37 44.1699C1641.85 43.6042 1641.21 43.167 1640.44 42.8584C1639.69 42.5498 1638.86 42.3955 1637.93 42.3955H1614.86C1613.24 42.3955 1611.49 42.1126 1609.62 41.5469C1607.74 40.9554 1605.99 40.0168 1604.37 38.731C1602.78 37.4451 1601.44 35.7607 1600.36 33.6777C1599.31 31.5947 1598.78 29.0488 1598.78 26.04C1598.78 23.0312 1599.31 20.4982 1600.36 18.4409C1601.44 16.3579 1602.78 14.6735 1604.37 13.3877C1605.99 12.0762 1607.74 11.1375 1609.62 10.5718C1611.49 9.98031 1613.24 9.68457 1614.86 9.68457H1649V19.7139H1614.86C1612.96 19.7139 1611.47 20.2925 1610.39 21.4497C1609.33 22.6069 1608.81 24.137 1608.81 26.04C1608.81 27.9688 1609.33 29.4989 1610.39 30.6304C1611.47 31.7362 1612.96 32.2891 1614.86 32.2891H1637.93H1638.01C1639.09 32.3148 1640.23 32.4691 1641.44 32.752C1642.65 33.0091 1643.85 33.4206 1645.03 33.9863C1646.24 34.5521 1647.38 35.2721 1648.46 36.1465C1649.54 36.9951 1650.49 38.0238 1651.32 39.2324C1652.17 40.4411 1652.83 41.8298 1653.32 43.3984C1653.81 44.9671 1654.06 46.7415 1654.06 48.7217ZM1711.76 19.7139H1689.66V65H1679.63V19.7139H1657.49V9.68457H1711.76V19.7139ZM1772.32 48.7217C1772.32 50.7018 1772.07 52.4891 1771.55 54.0835C1771.06 55.6522 1770.41 57.0409 1769.58 58.2495C1768.76 59.4582 1767.8 60.4868 1766.69 61.3354C1765.59 62.1841 1764.44 62.8784 1763.26 63.4185C1762.08 63.9585 1760.87 64.3571 1759.63 64.6143C1758.42 64.8714 1757.28 65 1756.2 65H1717.51V54.9707H1756.2C1758.13 54.9707 1759.62 54.4049 1760.67 53.2734C1761.75 52.1419 1762.29 50.6247 1762.29 48.7217C1762.29 47.7959 1762.15 46.9473 1761.87 46.1758C1761.59 45.4043 1761.18 44.7357 1760.64 44.1699C1760.12 43.6042 1759.48 43.167 1758.71 42.8584C1757.96 42.5498 1757.13 42.3955 1756.2 42.3955H1733.13C1731.51 42.3955 1729.76 42.1126 1727.89 41.5469C1726.01 40.9554 1724.26 40.0168 1722.64 38.731C1721.05 37.4451 1719.71 35.7607 1718.63 33.6777C1717.57 31.5947 1717.05 29.0488 1717.05 26.04C1717.05 23.0312 1717.57 20.4982 1718.63 18.4409C1719.71 16.3579 1721.05 14.6735 1722.64 13.3877C1724.26 12.0762 1726.01 11.1375 1727.89 10.5718C1729.76 9.98031 1731.51 9.68457 1733.13 9.68457H1767.27V19.7139H1733.13C1731.23 19.7139 1729.74 20.2925 1728.66 21.4497C1727.6 22.6069 1727.08 24.137 1727.08 26.04C1727.08 27.9688 1727.6 29.4989 1728.66 30.6304C1729.74 31.7362 1731.23 32.2891 1733.13 32.2891H1756.2H1756.28C1757.36 32.3148 1758.5 32.4691 1759.71 32.752C1760.92 33.0091 1762.11 33.4206 1763.3 33.9863C1764.51 34.5521 1765.65 35.2721 1766.73 36.1465C1767.81 36.9951 1768.76 38.0238 1769.58 39.2324C1770.43 40.4411 1771.1 41.8298 1771.59 43.3984C1772.08 44.9671 1772.32 46.7415 1772.32 48.7217Z" fill="white"/>
</svg>
