<svg width="1440" height="88" viewBox="0 0 1440 88" fill="none" xmlns="http://www.w3.org/2000/svg">
<g clip-path="url(#clip0_1_875)">
<path d="M-69.1831 19.7139H-91.2861V65H-101.315V19.7139H-123.457V9.68457H-69.1831V19.7139ZM-16.2979 42.3955H-47.9673V32.2891H-16.2979V42.3955ZM-11.7847 65H-47.9673C-49.356 65 -50.8732 64.7557 -52.519 64.2671C-54.1649 63.7785 -55.695 62.9813 -57.1094 61.8755C-58.498 60.744 -59.6681 59.291 -60.6196 57.5166C-61.5454 55.7165 -62.0083 53.5177 -62.0083 50.9204V14.7378C-62.0083 14.0435 -61.8797 13.3877 -61.6226 12.7705C-61.3654 12.1533 -61.0182 11.6133 -60.5811 11.1504C-60.1182 10.6875 -59.5781 10.3275 -58.9609 10.0703C-58.3438 9.81315 -57.6751 9.68457 -56.9551 9.68457H-11.7847V19.7139H-51.979V50.9204C-51.979 52.2319 -51.6318 53.2349 -50.9375 53.9292C-50.2432 54.6235 -49.2274 54.9707 -47.8901 54.9707H-11.7847V65ZM52.21 65H42.1807V51.4219H6.92383V65H-3.10547V37.3423C-3.10547 33.3049 -2.41113 29.5889 -1.02246 26.1943C0.366211 22.7998 2.29492 19.881 4.76367 17.438C7.23242 14.995 10.1512 13.092 13.52 11.729C16.8888 10.366 20.5662 9.68457 24.5522 9.68457H47.1567C47.8511 9.68457 48.5068 9.81315 49.124 10.0703C49.7412 10.3275 50.2812 10.6875 50.7441 11.1504C51.207 11.6133 51.5671 12.1533 51.8242 12.7705C52.0814 13.3877 52.21 14.0435 52.21 14.7378V65ZM6.92383 41.3926H42.1807V19.7139H24.5522C24.2437 19.7139 23.5879 19.7653 22.585 19.8682C21.6077 19.9453 20.4634 20.1639 19.1519 20.5239C17.866 20.884 16.5031 21.4368 15.063 22.1826C13.6229 22.9284 12.2985 23.957 11.0898 25.2686C9.88118 26.5801 8.87826 28.2259 8.08105 30.2061C7.30957 32.1605 6.92383 34.5392 6.92383 37.3423V41.3926ZM128.278 65H118.172V32.0576L100.389 63.3413C99.952 64.1385 99.3348 64.7428 98.5376 65.1543C97.7661 65.5658 96.9303 65.7715 96.0303 65.7715C95.1559 65.7715 94.333 65.5658 93.5615 65.1543C92.8158 64.7428 92.2243 64.1385 91.7871 63.3413L73.9272 32.0576V65H63.8979V13.9663C63.8979 12.8091 64.2323 11.7804 64.9009 10.8804C65.5952 9.98031 66.4953 9.37598 67.6011 9.06738C68.1411 8.9388 68.6812 8.90023 69.2212 8.95166C69.7612 8.97738 70.2756 9.0931 70.7642 9.29883C71.2785 9.47884 71.7414 9.74886 72.1528 10.1089C72.5643 10.4432 72.9115 10.8547 73.1943 11.3433L96.0303 51.0361L118.866 11.3433C119.458 10.366 120.268 9.67171 121.296 9.26025C122.351 8.8488 123.444 8.78451 124.575 9.06738C125.655 9.37598 126.542 9.98031 127.237 10.8804C127.931 11.7804 128.278 12.8091 128.278 13.9663V65Z" fill="white"/>
<path d="M207.205 65H197.099V32.0576L179.316 63.3413C178.879 64.1385 178.262 64.7428 177.464 65.1543C176.693 65.5658 175.857 65.7715 174.957 65.7715C174.083 65.7715 173.26 65.5658 172.488 65.1543C171.743 64.7428 171.151 64.1385 170.714 63.3413L152.854 32.0576V65H142.825V13.9663C142.825 12.8091 143.159 11.7804 143.828 10.8804C144.522 9.98031 145.422 9.37598 146.528 9.06738C147.068 8.9388 147.608 8.90023 148.148 8.95166C148.688 8.97738 149.202 9.0931 149.691 9.29883C150.205 9.47884 150.668 9.74886 151.08 10.1089C151.491 10.4432 151.838 10.8547 152.121 11.3433L174.957 51.0361L197.793 11.3433C198.384 10.366 199.194 9.67171 200.223 9.26025C201.278 8.8488 202.37 8.78451 203.502 9.06738C204.582 9.37598 205.469 9.98031 206.164 10.8804C206.858 11.7804 207.205 12.8091 207.205 13.9663V65ZM264.372 42.3955H232.703V32.2891H264.372V42.3955ZM268.885 65H232.703C231.314 65 229.797 64.7557 228.151 64.2671C226.505 63.7785 224.975 62.9813 223.561 61.8755C222.172 60.744 221.002 59.291 220.05 57.5166C219.125 55.7165 218.662 53.5177 218.662 50.9204V14.7378C218.662 14.0435 218.79 13.3877 219.047 12.7705C219.305 12.1533 219.652 11.6133 220.089 11.1504C220.552 10.6875 221.092 10.3275 221.709 10.0703C222.326 9.81315 222.995 9.68457 223.715 9.68457H268.885V19.7139H228.691V50.9204C228.691 52.2319 229.038 53.2349 229.732 53.9292C230.427 54.6235 231.443 54.9707 232.78 54.9707H268.885V65ZM324.085 42.3955H292.416V32.2891H324.085V42.3955ZM328.598 65H292.416C291.027 65 289.51 64.7557 287.864 64.2671C286.218 63.7785 284.688 62.9813 283.273 61.8755C281.885 60.744 280.715 59.291 279.763 57.5166C278.837 55.7165 278.375 53.5177 278.375 50.9204V14.7378C278.375 14.0435 278.503 13.3877 278.76 12.7705C279.017 12.1533 279.365 11.6133 279.802 11.1504C280.265 10.6875 280.805 10.3275 281.422 10.0703C282.039 9.81315 282.708 9.68457 283.428 9.68457H328.598V19.7139H288.404V50.9204C288.404 52.2319 288.751 53.2349 289.445 53.9292C290.14 54.6235 291.155 54.9707 292.493 54.9707H328.598V65ZM388.311 19.7139H366.208V65H356.179V19.7139H334.037V9.68457H388.311V19.7139Z" fill="black"/>
<path d="M447.817 19.7139H425.714V65H415.685V19.7139H393.543V9.68457H447.817V19.7139ZM500.702 42.3955H469.033V32.2891H500.702V42.3955ZM505.215 65H469.033C467.644 65 466.127 64.7557 464.481 64.2671C462.835 63.7785 461.305 62.9813 459.891 61.8755C458.502 60.744 457.332 59.291 456.38 57.5166C455.455 55.7165 454.992 53.5177 454.992 50.9204V14.7378C454.992 14.0435 455.12 13.3877 455.377 12.7705C455.635 12.1533 455.982 11.6133 456.419 11.1504C456.882 10.6875 457.422 10.3275 458.039 10.0703C458.656 9.81315 459.325 9.68457 460.045 9.68457H505.215V19.7139H465.021V50.9204C465.021 52.2319 465.368 53.2349 466.062 53.9292C466.757 54.6235 467.773 54.9707 469.11 54.9707H505.215V65ZM569.21 65H559.181V51.4219H523.924V65H513.895V37.3423C513.895 33.3049 514.589 29.5889 515.978 26.1943C517.366 22.7998 519.295 19.881 521.764 17.438C524.232 14.995 527.151 13.092 530.52 11.729C533.889 10.366 537.566 9.68457 541.552 9.68457H564.157C564.851 9.68457 565.507 9.81315 566.124 10.0703C566.741 10.3275 567.281 10.6875 567.744 11.1504C568.207 11.6133 568.567 12.1533 568.824 12.7705C569.081 13.3877 569.21 14.0435 569.21 14.7378V65ZM523.924 41.3926H559.181V19.7139H541.552C541.244 19.7139 540.588 19.7653 539.585 19.8682C538.608 19.9453 537.463 20.1639 536.152 20.5239C534.866 20.884 533.503 21.4368 532.063 22.1826C530.623 22.9284 529.299 23.957 528.09 25.2686C526.881 26.5801 525.878 28.2259 525.081 30.2061C524.31 32.1605 523.924 34.5392 523.924 37.3423V41.3926ZM645.278 65H635.172V32.0576L617.389 63.3413C616.952 64.1385 616.335 64.7428 615.538 65.1543C614.766 65.5658 613.93 65.7715 613.03 65.7715C612.156 65.7715 611.333 65.5658 610.562 65.1543C609.816 64.7428 609.224 64.1385 608.787 63.3413L590.927 32.0576V65H580.898V13.9663C580.898 12.8091 581.232 11.7804 581.901 10.8804C582.595 9.98031 583.495 9.37598 584.601 9.06738C585.141 8.9388 585.681 8.90023 586.221 8.95166C586.761 8.97738 587.276 9.0931 587.764 9.29883C588.278 9.47884 588.741 9.74886 589.153 10.1089C589.564 10.4432 589.911 10.8547 590.194 11.3433L613.03 51.0361L635.866 11.3433C636.458 10.366 637.268 9.67171 638.296 9.26025C639.351 8.8488 640.444 8.78451 641.575 9.06738C642.655 9.37598 643.542 9.98031 644.237 10.8804C644.931 11.7804 645.278 12.8091 645.278 13.9663V65Z" fill="white"/>
<path d="M724.205 65H714.099V32.0576L696.316 63.3413C695.879 64.1385 695.262 64.7428 694.464 65.1543C693.693 65.5658 692.857 65.7715 691.957 65.7715C691.083 65.7715 690.26 65.5658 689.488 65.1543C688.743 64.7428 688.151 64.1385 687.714 63.3413L669.854 32.0576V65H659.825V13.9663C659.825 12.8091 660.159 11.7804 660.828 10.8804C661.522 9.98031 662.422 9.37598 663.528 9.06738C664.068 8.9388 664.608 8.90023 665.148 8.95166C665.688 8.97738 666.202 9.0931 666.691 9.29883C667.205 9.47884 667.668 9.74886 668.08 10.1089C668.491 10.4432 668.838 10.8547 669.121 11.3433L691.957 51.0361L714.793 11.3433C715.384 10.366 716.194 9.67171 717.223 9.26025C718.278 8.8488 719.37 8.78451 720.502 9.06738C721.582 9.37598 722.469 9.98031 723.164 10.8804C723.858 11.7804 724.205 12.8091 724.205 13.9663V65ZM781.372 42.3955H749.703V32.2891H781.372V42.3955ZM785.885 65H749.703C748.314 65 746.797 64.7557 745.151 64.2671C743.505 63.7785 741.975 62.9813 740.561 61.8755C739.172 60.744 738.002 59.291 737.05 57.5166C736.125 55.7165 735.662 53.5177 735.662 50.9204V14.7378C735.662 14.0435 735.79 13.3877 736.047 12.7705C736.305 12.1533 736.652 11.6133 737.089 11.1504C737.552 10.6875 738.092 10.3275 738.709 10.0703C739.326 9.81315 739.995 9.68457 740.715 9.68457H785.885V19.7139H745.691V50.9204C745.691 52.2319 746.038 53.2349 746.732 53.9292C747.427 54.6235 748.443 54.9707 749.78 54.9707H785.885V65ZM841.085 42.3955H809.416V32.2891H841.085V42.3955ZM845.598 65H809.416C808.027 65 806.51 64.7557 804.864 64.2671C803.218 63.7785 801.688 62.9813 800.273 61.8755C798.885 60.744 797.715 59.291 796.763 57.5166C795.837 55.7165 795.375 53.5177 795.375 50.9204V14.7378C795.375 14.0435 795.503 13.3877 795.76 12.7705C796.017 12.1533 796.365 11.6133 796.802 11.1504C797.265 10.6875 797.805 10.3275 798.422 10.0703C799.039 9.81315 799.708 9.68457 800.428 9.68457H845.598V19.7139H805.404V50.9204C805.404 52.2319 805.751 53.2349 806.445 53.9292C807.14 54.6235 808.155 54.9707 809.493 54.9707H845.598V65ZM905.311 19.7139H883.208V65H873.179V19.7139H851.037V9.68457H905.311V19.7139Z" fill="black"/>
<path d="M964.817 19.7139H942.714V65H932.685V19.7139H910.543V9.68457H964.817V19.7139ZM1017.7 42.3955H986.033V32.2891H1017.7V42.3955ZM1022.22 65H986.033C984.644 65 983.127 64.7557 981.481 64.2671C979.835 63.7785 978.305 62.9813 976.891 61.8755C975.502 60.744 974.332 59.291 973.38 57.5166C972.455 55.7165 971.992 53.5177 971.992 50.9204V14.7378C971.992 14.0435 972.12 13.3877 972.377 12.7705C972.635 12.1533 972.982 11.6133 973.419 11.1504C973.882 10.6875 974.422 10.3275 975.039 10.0703C975.656 9.81315 976.325 9.68457 977.045 9.68457H1022.22V19.7139H982.021V50.9204C982.021 52.2319 982.368 53.2349 983.062 53.9292C983.757 54.6235 984.773 54.9707 986.11 54.9707H1022.22V65ZM1086.21 65H1076.18V51.4219H1040.92V65H1030.89V37.3423C1030.89 33.3049 1031.59 29.5889 1032.98 26.1943C1034.37 22.7998 1036.29 19.881 1038.76 17.438C1041.23 14.995 1044.15 13.092 1047.52 11.729C1050.89 10.366 1054.57 9.68457 1058.55 9.68457H1081.16C1081.85 9.68457 1082.51 9.81315 1083.12 10.0703C1083.74 10.3275 1084.28 10.6875 1084.74 11.1504C1085.21 11.6133 1085.57 12.1533 1085.82 12.7705C1086.08 13.3877 1086.21 14.0435 1086.21 14.7378V65ZM1040.92 41.3926H1076.18V19.7139H1058.55C1058.24 19.7139 1057.59 19.7653 1056.58 19.8682C1055.61 19.9453 1054.46 20.1639 1053.15 20.5239C1051.87 20.884 1050.5 21.4368 1049.06 22.1826C1047.62 22.9284 1046.3 23.957 1045.09 25.2686C1043.88 26.5801 1042.88 28.2259 1042.08 30.2061C1041.31 32.1605 1040.92 34.5392 1040.92 37.3423V41.3926ZM1162.28 65H1152.17V32.0576L1134.39 63.3413C1133.95 64.1385 1133.33 64.7428 1132.54 65.1543C1131.77 65.5658 1130.93 65.7715 1130.03 65.7715C1129.16 65.7715 1128.33 65.5658 1127.56 65.1543C1126.82 64.7428 1126.22 64.1385 1125.79 63.3413L1107.93 32.0576V65H1097.9V13.9663C1097.9 12.8091 1098.23 11.7804 1098.9 10.8804C1099.6 9.98031 1100.5 9.37598 1101.6 9.06738C1102.14 8.9388 1102.68 8.90023 1103.22 8.95166C1103.76 8.97738 1104.28 9.0931 1104.76 9.29883C1105.28 9.47884 1105.74 9.74886 1106.15 10.1089C1106.56 10.4432 1106.91 10.8547 1107.19 11.3433L1130.03 51.0361L1152.87 11.3433C1153.46 10.366 1154.27 9.67171 1155.3 9.26025C1156.35 8.8488 1157.44 8.78451 1158.58 9.06738C1159.66 9.37598 1160.54 9.98031 1161.24 10.8804C1161.93 11.7804 1162.28 12.8091 1162.28 13.9663V65Z" fill="white"/>
<path d="M1241.21 65H1231.1V32.0576L1213.32 63.3413C1212.88 64.1385 1212.26 64.7428 1211.46 65.1543C1210.69 65.5658 1209.86 65.7715 1208.96 65.7715C1208.08 65.7715 1207.26 65.5658 1206.49 65.1543C1205.74 64.7428 1205.15 64.1385 1204.71 63.3413L1186.85 32.0576V65H1176.82V13.9663C1176.82 12.8091 1177.16 11.7804 1177.83 10.8804C1178.52 9.98031 1179.42 9.37598 1180.53 9.06738C1181.07 8.9388 1181.61 8.90023 1182.15 8.95166C1182.69 8.97738 1183.2 9.0931 1183.69 9.29883C1184.21 9.47884 1184.67 9.74886 1185.08 10.1089C1185.49 10.4432 1185.84 10.8547 1186.12 11.3433L1208.96 51.0361L1231.79 11.3433C1232.38 10.366 1233.19 9.67171 1234.22 9.26025C1235.28 8.8488 1236.37 8.78451 1237.5 9.06738C1238.58 9.37598 1239.47 9.98031 1240.16 10.8804C1240.86 11.7804 1241.21 12.8091 1241.21 13.9663V65ZM1298.37 42.3955H1266.7V32.2891H1298.37V42.3955ZM1302.89 65H1266.7C1265.31 65 1263.8 64.7557 1262.15 64.2671C1260.51 63.7785 1258.97 62.9813 1257.56 61.8755C1256.17 60.744 1255 59.291 1254.05 57.5166C1253.12 55.7165 1252.66 53.5177 1252.66 50.9204V14.7378C1252.66 14.0435 1252.79 13.3877 1253.05 12.7705C1253.3 12.1533 1253.65 11.6133 1254.09 11.1504C1254.55 10.6875 1255.09 10.3275 1255.71 10.0703C1256.33 9.81315 1256.99 9.68457 1257.71 9.68457H1302.89V19.7139H1262.69V50.9204C1262.69 52.2319 1263.04 53.2349 1263.73 53.9292C1264.43 54.6235 1265.44 54.9707 1266.78 54.9707H1302.89V65ZM1358.08 42.3955H1326.42V32.2891H1358.08V42.3955ZM1362.6 65H1326.42C1325.03 65 1323.51 64.7557 1321.86 64.2671C1320.22 63.7785 1318.69 62.9813 1317.27 61.8755C1315.88 60.744 1314.71 59.291 1313.76 57.5166C1312.84 55.7165 1312.37 53.5177 1312.37 50.9204V14.7378C1312.37 14.0435 1312.5 13.3877 1312.76 12.7705C1313.02 12.1533 1313.36 11.6133 1313.8 11.1504C1314.26 10.6875 1314.8 10.3275 1315.42 10.0703C1316.04 9.81315 1316.71 9.68457 1317.43 9.68457H1362.6V19.7139H1322.4V50.9204C1322.4 52.2319 1322.75 53.2349 1323.45 53.9292C1324.14 54.6235 1325.16 54.9707 1326.49 54.9707H1362.6V65ZM1422.31 19.7139H1400.21V65H1390.18V19.7139H1368.04V9.68457H1422.31V19.7139Z" fill="black"/>
<path d="M1481.82 19.7139H1459.71V65H1449.68V19.7139H1427.54V9.68457H1481.82V19.7139ZM1534.7 42.3955H1503.03V32.2891H1534.7V42.3955ZM1539.22 65H1503.03C1501.64 65 1500.13 64.7557 1498.48 64.2671C1496.84 63.7785 1495.31 62.9813 1493.89 61.8755C1492.5 60.744 1491.33 59.291 1490.38 57.5166C1489.45 55.7165 1488.99 53.5177 1488.99 50.9204V14.7378C1488.99 14.0435 1489.12 13.3877 1489.38 12.7705C1489.63 12.1533 1489.98 11.6133 1490.42 11.1504C1490.88 10.6875 1491.42 10.3275 1492.04 10.0703C1492.66 9.81315 1493.32 9.68457 1494.04 9.68457H1539.22V19.7139H1499.02V50.9204C1499.02 52.2319 1499.37 53.2349 1500.06 53.9292C1500.76 54.6235 1501.77 54.9707 1503.11 54.9707H1539.22V65ZM1603.21 65H1593.18V51.4219H1557.92V65H1547.89V37.3423C1547.89 33.3049 1548.59 29.5889 1549.98 26.1943C1551.37 22.7998 1553.29 19.881 1555.76 17.438C1558.23 14.995 1561.15 13.092 1564.52 11.729C1567.89 10.366 1571.57 9.68457 1575.55 9.68457H1598.16C1598.85 9.68457 1599.51 9.81315 1600.12 10.0703C1600.74 10.3275 1601.28 10.6875 1601.74 11.1504C1602.21 11.6133 1602.57 12.1533 1602.82 12.7705C1603.08 13.3877 1603.21 14.0435 1603.21 14.7378V65ZM1557.92 41.3926H1593.18V19.7139H1575.55C1575.24 19.7139 1574.59 19.7653 1573.58 19.8682C1572.61 19.9453 1571.46 20.1639 1570.15 20.5239C1568.87 20.884 1567.5 21.4368 1566.06 22.1826C1564.62 22.9284 1563.3 23.957 1562.09 25.2686C1560.88 26.5801 1559.88 28.2259 1559.08 30.2061C1558.31 32.1605 1557.92 34.5392 1557.92 37.3423V41.3926ZM1679.28 65H1669.17V32.0576L1651.39 63.3413C1650.95 64.1385 1650.33 64.7428 1649.54 65.1543C1648.77 65.5658 1647.93 65.7715 1647.03 65.7715C1646.16 65.7715 1645.33 65.5658 1644.56 65.1543C1643.82 64.7428 1643.22 64.1385 1642.79 63.3413L1624.93 32.0576V65H1614.9V13.9663C1614.9 12.8091 1615.23 11.7804 1615.9 10.8804C1616.6 9.98031 1617.5 9.37598 1618.6 9.06738C1619.14 8.9388 1619.68 8.90023 1620.22 8.95166C1620.76 8.97738 1621.28 9.0931 1621.76 9.29883C1622.28 9.47884 1622.74 9.74886 1623.15 10.1089C1623.56 10.4432 1623.91 10.8547 1624.19 11.3433L1647.03 51.0361L1669.87 11.3433C1670.46 10.366 1671.27 9.67171 1672.3 9.26025C1673.35 8.8488 1674.44 8.78451 1675.58 9.06738C1676.66 9.37598 1677.54 9.98031 1678.24 10.8804C1678.93 11.7804 1679.28 12.8091 1679.28 13.9663V65Z" fill="white"/>
</g>
<defs>
<clipPath id="clip0_1_875">
<rect width="1440" height="88" fill="white"/>
</clipPath>
</defs>
</svg>
